<?xml version="1.0" standalone="no"?>
<!DOCTYPE svg PUBLIC "-//W3C//DTD SVG 20010904//EN"
 "http://www.w3.org/TR/2001/REC-SVG-20010904/DTD/svg10.dtd">
<svg version="1.0" xmlns="http://www.w3.org/2000/svg"
 width="512.000000pt" height="512.000000pt" viewBox="0 0 512.000000 512.000000"
 preserveAspectRatio="xMidYMid meet">

<g transform="translate(0.000000,512.000000) scale(0.100000,-0.100000)"
fill="#000000" stroke="none">
<path d="M2405 5109 c-616 -34 -1206 -300 -1650 -744 -411 -411 -673 -954
-735 -1525 -15 -135 -15 -425 0 -560 92 -847 618 -1607 1378 -1993 375 -191
736 -278 1157 -278 430 -1 775 78 1144 262 273 135 478 286 697 512 454 468
699 1048 720 1707 11 319 -51 675 -172 987 -126 329 -327 637 -579 888 -520
521 -1217 785 -1960 744z m-539 -1080 c232 -32 426 -128 608 -300 l86 -81 2
-461 3 -462 129 310 c71 171 133 314 137 319 10 11 148 -41 155 -58 2 -6 -93
-242 -211 -524 l-215 -512 0 -813 0 -812 -824 825 c-834 836 -885 891 -958
1035 -232 455 -102 1019 304 1326 227 171 511 246 784 208z m1224 -1655 c205
-65 313 -353 213 -567 -118 -251 -407 -301 -583 -101 -121 139 -133 367 -28
524 94 141 241 194 398 144z"/>
<path d="M2907 2199 c-102 -54 -145 -218 -86 -332 33 -65 97 -107 160 -107
160 0 245 239 136 382 -59 76 -135 97 -210 57z"/>
</g>
</svg>
